<?xml version="1.0" encoding="UTF-8" standalone="no"?>
<!-- Creator: CorelDRAW 2018 (64-Bit) -->

<svg
   xml:space="preserve"
   width="145.26936mm"
   height="52.142815mm"
   version="1.1"
   style="clip-rule:evenodd;fill-rule:evenodd;image-rendering:optimizeQuality;shape-rendering:geometricPrecision;text-rendering:geometricPrecision"
   viewBox="0 0 14526.937 5214.2815"
   id="svg125"
   sodipodi:docname="RANS Entertainment [blogovector.com].svg"
   inkscape:version="1.1.1 (3bf5ae0d25, 2021-09-20)"
   xmlns:inkscape="http://www.inkscape.org/namespaces/inkscape"
   xmlns:sodipodi="http://sodipodi.sourceforge.net/DTD/sodipodi-0.dtd"
   xmlns:xlink="http://www.w3.org/1999/xlink"
   xmlns="http://www.w3.org/2000/svg"
   xmlns:svg="http://www.w3.org/2000/svg"><sodipodi:namedview
   id="namedview127"
   pagecolor="#ffffff"
   bordercolor="#666666"
   borderopacity="1.0"
   inkscape:pageshadow="2"
   inkscape:pageopacity="0.0"
   inkscape:pagecheckerboard="0"
   inkscape:document-units="mm"
   showgrid="false"
   inkscape:zoom="0.49578497"
   inkscape:cx="166.40278"
   inkscape:cy="277.33797"
   inkscape:window-width="1366"
   inkscape:window-height="715"
   inkscape:window-x="-8"
   inkscape:window-y="-8"
   inkscape:window-maximized="1"
   inkscape:current-layer="Layer_x0020_1" />
 <defs
   id="defs37">
  <style
   type="text/css"
   id="style2">
   <![CDATA[
    .fil11 {fill:#00B8DC}
    .fil17 {fill:#3665B5}
    .fil14 {fill:#3764B4}
    .fil1 {fill:#4154FF}
    .fil13 {fill:#731080}
    .fil15 {fill:white}
    .fil2 {fill:white}
    .fil23 {fill:black;fill-rule:nonzero}
    .fil5 {fill:#009933;fill-rule:nonzero}
    .fil6 {fill:#0F5FFF;fill-rule:nonzero}
    .fil9 {fill:#3764B4;fill-rule:nonzero}
    .fil0 {fill:#B3B3B3;fill-rule:nonzero}
    .fil4 {fill:red;fill-rule:nonzero}
    .fil3 {fill:#FFCC00;fill-rule:nonzero}
    .fil7 {fill:white;fill-rule:nonzero}
    .fil21 {fill:url(#id0)}
    .fil19 {fill:url(#id1)}
    .fil16 {fill:url(#id2)}
    .fil12 {fill:url(#id3)}
    .fil22 {fill:url(#id4)}
    .fil18 {fill:url(#id5)}
    .fil10 {fill:url(#id6)}
    .fil20 {fill:url(#id7)}
    .fil8 {fill:url(#id8);fill-rule:nonzero}
   ]]>
  </style>
  <linearGradient
   id="id0"
   gradientUnits="userSpaceOnUse"
   x1="7777.98"
   y1="5777.9399"
   x2="5178.46"
   y2="4894.4199">
   <stop
   offset="0"
   style="stop-opacity:1; stop-color:#761080"
   id="stop4" />
   <stop
   offset="1"
   style="stop-opacity:1; stop-color:#C4178A"
   id="stop6" />
  </linearGradient>
  <linearGradient
   id="id1"
   gradientUnits="userSpaceOnUse"
   x1="4817.23"
   y1="5961.8701"
   x2="4948.5098"
   y2="4907.5498">
   <stop
   offset="0"
   style="stop-opacity:1; stop-color:#3764B4"
   id="stop9" />
   <stop
   offset="1"
   style="stop-opacity:1; stop-color:#24B6DB"
   id="stop11" />
  </linearGradient>
  <linearGradient
   id="id2"
   gradientUnits="userSpaceOnUse"
   xlink:href="#id0"
   x1="7778"
   y1="2559.22"
   x2="5178.4902"
   y2="1675.7">
  </linearGradient>
  <linearGradient
   id="id3"
   gradientUnits="userSpaceOnUse"
   x1="6971.0898"
   y1="1803.4"
   x2="8360.21"
   y2="1880.01">
   <stop
   offset="0"
   style="stop-opacity:1; stop-color:#BF2881"
   id="stop15" />
   <stop
   offset="1"
   style="stop-opacity:1; stop-color:#731080"
   id="stop17" />
  </linearGradient>
  <linearGradient
   id="id4"
   gradientUnits="userSpaceOnUse"
   x1="2129.5801"
   y1="4825.54"
   x2="5096.79"
   y2="4825.54">
   <stop
   offset="0"
   style="stop-opacity:1; stop-color:#3665B5"
   id="stop20" />
   <stop
   offset="0.34902"
   style="stop-opacity:1; stop-color:#00B7DB"
   id="stop22" />
   <stop
   offset="0.490196"
   style="stop-opacity:1; stop-color:#00B7DB"
   id="stop24" />
   <stop
   offset="1"
   style="stop-opacity:1; stop-color:#3764B4"
   id="stop26" />
  </linearGradient>
  <linearGradient
   id="id5"
   gradientUnits="userSpaceOnUse"
   xlink:href="#id4"
   x1="2129.6101"
   y1="1606.8"
   x2="5096.8198"
   y2="1606.8">
  </linearGradient>
  <linearGradient
   id="id6"
   gradientUnits="userSpaceOnUse"
   xlink:href="#id1"
   x1="4817.25"
   y1="2743.1399"
   x2="4948.54"
   y2="1688.8199">
  </linearGradient>
  <linearGradient
   id="id7"
   gradientUnits="userSpaceOnUse"
   xlink:href="#id3"
   x1="6971.0698"
   y1="5022.1299"
   x2="8360.1797"
   y2="5098.7402">
  </linearGradient>
  <linearGradient
   id="id8"
   gradientUnits="userSpaceOnUse"
   x1="2911.98"
   y1="3451.8701"
   x2="8275.3604"
   y2="3451.8701">
   <stop
   offset="0"
   style="stop-opacity:1; stop-color:#AE116A"
   id="stop32" />
   <stop
   offset="1"
   style="stop-opacity:1; stop-color:#3665B5"
   id="stop34" />
  </linearGradient>
 <linearGradient
   inkscape:collect="always"
   xlink:href="#id3"
   id="linearGradient1024"
   gradientUnits="userSpaceOnUse"
   x1="6971.0898"
   y1="1803.4"
   x2="8360.21"
   y2="1880.01" />
   
   
  </defs>
 <g
   id="Layer_x0020_1"
   inkscape:label="Layer 1"
   inkscape:groupmode="layer"
   transform="translate(2263.465,2080.2733)">
  <metadata
   id="CorelCorpID_0Corel-Layer" />
  
  <g
   id="g93"
   transform="matrix(2.3202178,0,0,2.3202178,-6601.089,-5343.2091)">
    <path
   class="fil8"
   d="m 2203.37,3243.46 c -22,0 -69.99,83.08 -58.96,94.05 1.43,1.42 11.71,4.59 17.95,-5.73 11.61,-19.24 18.47,-22.68 34.6,-40.98 17.96,-20.37 20.08,-47.34 6.41,-47.34 z m 1237.49,0 c -22,0 -69.99,83.08 -58.96,94.05 1.43,1.42 11.72,4.59 17.95,-5.73 11.62,-19.24 18.47,-22.68 34.61,-40.98 17.96,-20.37 20.07,-47.34 6.4,-47.34 z M 2003.2,3444.72 c 18.47,-30.6 49.96,-53.04 49.98,-53.07 l 6.2,-49.26 c 3.3,-24.13 40.24,-105.57 55.76,-126.11 l 56.19,-65.81 31.19,-21.87 c 9.49,-5.21 60.89,-13.78 78.83,7.43 13.6,16.08 16.77,44.83 20.51,66.66 l -14.32,44.59 c -20.47,70.47 -120.27,149.73 -129.46,169.42 -7.08,15.17 -2.35,40.89 15.17,52.01 l 42.09,14.23 c 75.63,4.97 107.21,-51.13 150.36,-96.39 l 67.09,-74.94 60.88,-66.24 c 22.12,-24.96 47.41,-40.13 80.33,-40.13 32.85,0 43.79,23.11 43.79,54.56 0,23.03 -29.81,126.36 -43.79,161.36 -7.54,18.89 -24.43,42.21 -12.61,56.47 10.32,-6.15 16.64,-20.99 27.78,-32.06 7.05,-6.79 15.17,-14.43 24.78,-22.71 3.84,-7.01 8.54,-14.02 14.74,-20.81 12.6,-14.07 18.55,-15.31 26.92,-26.96 20.34,-28.31 77.12,-65.39 109.16,-65.39 25.93,0 50.04,15.36 60.04,38.42 15.57,35.94 26.54,128.96 72.42,106.16 0.64,-0.32 111.87,-134.32 117.47,-141.82 28.19,-37.58 55.97,-81.11 83.53,-130.15 l 25.2,-45.86 c 3.08,-13.91 -27.65,-3.18 -33.32,-3.18 l -111.3,-1.28 -33.55,-16.34 c -11.46,-10.95 1.87,-64.16 4.49,-70.7 10.27,-25.62 28.52,-22.67 58.75,-19.53 10.25,1.06 19.23,2.33 27.35,4.03 7.27,0.01 9.69,-6.42 46.14,-2.55 27.48,2.91 7.62,5.18 34.18,-0.21 5.34,-1.06 10.9,-2.12 17.31,-3.4 13.7,0.65 31.15,30.33 67.08,-54.99 16.45,-39.06 33.96,-58.59 52.76,-58.59 39.68,0 33.66,43.97 22.86,74.3 -10.77,30.29 -13.94,36.32 0.43,47.14 13.81,10.39 4.19,76.28 3.42,80.67 -4.43,25.43 -6.88,19.99 -53.41,29.51 -9.24,45.99 -17.09,60.58 -31.83,114.65 -8.55,31.63 -18.37,69.21 -29.27,112.53 l -20.51,127.8 c 0,9.84 2.4,19.96 12.61,19.96 17.68,0 121.34,-104.66 133.06,-124.62 l 6.2,-49.26 c 3.29,-24.13 40.23,-105.57 55.75,-126.11 l 56.19,-65.81 31.19,-21.87 c 9.49,-5.21 60.89,-13.78 78.83,7.43 13.6,16.08 16.77,44.83 20.51,66.66 l -14.31,44.59 c -20.48,70.47 -120.27,149.73 -129.47,169.42 -7.08,15.17 -2.35,40.89 15.17,52.01 l 42.09,14.23 c 72.53,4.76 143.88,-82.73 190.53,-137.15 19.44,-23.14 33.54,-44.59 42.3,-64.33 l -6.2,-29.94 c 0.86,-6.31 78.89,-87.58 128.61,-45.22 9.62,8.28 19.23,16.99 28.42,25.9 20.58,16.58 33.62,22.21 47.42,58.6 8.34,21.87 12.61,48.62 12.61,80.04 0,45.3 -61.05,147.98 -30.77,147.98 39.73,0 174.6,-164.97 205.49,-206.36 28.2,-37.58 55.97,-81.11 83.53,-130.15 l 25.21,-45.86 c 3.07,-13.91 -27.65,-3.18 -33.33,-3.18 l -111.3,-1.28 -33.54,-16.34 c -11.46,-10.95 1.86,-64.16 4.49,-70.7 10.27,-25.62 28.51,-22.67 58.75,-19.53 10.25,1.06 19.22,2.33 27.34,4.03 7.27,0.01 9.7,-6.42 46.15,-2.55 27.47,2.91 7.62,5.18 34.18,-0.21 5.34,-1.06 10.89,-2.12 17.3,-3.4 13.7,0.65 31.15,30.33 67.08,-54.99 16.45,-39.06 33.97,-58.59 52.77,-58.59 39.68,0 33.66,43.97 22.86,74.3 -10.78,30.29 -13.95,36.32 0.43,47.14 13.8,10.39 4.18,76.28 3.42,80.67 -4.43,25.43 -6.89,19.99 -53.42,29.51 -9.23,45.99 -17.09,60.58 -31.83,114.65 -8.54,31.63 -18.37,69.21 -29.26,112.53 l -20.51,127.8 c 0,9.84 2.39,19.96 12.6,19.96 24.49,0 111.36,-103.43 160.62,-135.45 5.36,-4.33 72.92,-73.92 83.75,-84.5 16.9,-11.66 19.17,-9.8 40.59,-29.94 46.51,-43.74 120.31,-107 171.98,-107 45.82,0 36.26,49.16 12.39,65.82 -43.61,30.42 -26.75,20.78 -58.11,52.65 -9.61,9.76 -20.73,19.32 -33.76,28.87 -5.9,5.9 -1.99,6.3 -22.43,25.48 -5.77,5.52 -13.46,11.68 -23.07,18.68 -4.27,9.13 -13.25,21.02 -27.35,35.46 -69.35,72.08 -38.65,23.98 -100.83,113.37 l 4.27,5.52 c 45.04,-14.57 86.49,-74.14 124.55,-95.11 20.03,-11.04 28.45,-33.65 63.66,-56.9 36.42,-24.05 73.79,-26.83 74.35,24.41 0.38,35.1 -8.27,70.86 9.61,95.54 13.89,19.18 36.33,21.48 51.92,4.46 36.67,-40.03 134.51,-142.49 148.65,-163.26 18.18,-26.72 48.61,-21.6 67.72,-7.86 26.7,19.19 27.36,80.44 34.4,111.04 l 19.87,66.45 c 15.01,23.34 54.42,8.31 71.99,-6.37 33.57,-27.9 55.67,-57.4 87.78,-91.08 l 67.08,-74.94 60.88,-66.24 c 22.12,-24.96 47.42,-40.13 80.33,-40.13 32.85,0 43.8,23.11 43.8,54.56 0,23.03 -29.82,126.36 -43.8,161.36 -7.54,18.89 -24.43,42.21 -12.6,56.47 10.31,-6.15 16.64,-20.99 27.77,-32.06 7.05,-6.79 15.17,-14.43 24.78,-22.71 3.85,-7.01 8.55,-14.02 14.74,-20.81 12.6,-14.07 18.55,-15.31 26.92,-26.96 20.34,-28.31 77.13,-65.39 109.17,-65.39 25.92,0 50.03,15.36 60.03,38.42 50.64,116.87 34.45,153.73 96.74,69.43 47.18,-60.77 83.27,-87.94 131.39,-138 11.32,-11.68 24.35,-25.27 39.52,-40.55 14.96,-5.74 31.4,-12.32 49.35,-19.75 11.32,0 19.65,3.61 25,10.83 15.86,21.03 5.05,84.44 -2.35,110.19 -1.36,4.7 -18.45,44.88 -1.29,40.97 11.99,-2.72 85.83,-82.57 107.25,-105.94 25.6,-27.92 107.81,-115.06 137.58,-68.15 14.81,23.33 7.22,85.81 2.99,112.31 -9.67,60.69 -35.98,83.82 -15.81,94.27 13.18,-11.46 21.22,-26.76 26.92,-32.91 l 60.03,-47.98 c 21.58,-16.43 45.15,-27.82 71.36,-27.82 12.4,0 44.52,36.57 49.35,46.5 14.06,28.94 55.17,110.4 83,97.39 32.88,-18.45 47.87,-45.31 47.92,-57.26 l 6.2,-49.26 c 3.3,-24.13 40.23,-105.57 55.76,-126.11 l 56.18,-65.81 31.19,-21.87 c 9.5,-5.21 60.89,-13.78 78.83,7.43 13.6,16.08 16.77,44.83 20.51,66.66 l -14.31,44.59 c -20.47,70.47 -120.27,149.73 -129.47,169.42 -7.08,15.17 -2.34,40.89 15.18,52.01 l 42.08,14.23 c 20.1,1.32 62.3,-12.74 80.54,-23.35 16.81,-9.57 51.57,-53.89 69.83,-73.04 l 67.08,-74.94 60.89,-66.24 c 22.11,-24.96 47.41,-40.13 80.32,-40.13 32.86,0 43.8,23.11 43.8,54.56 0,23.03 -29.82,126.36 -43.8,161.36 -7.54,18.89 -24.42,42.21 -12.6,56.47 10.32,-6.15 16.64,-20.99 27.77,-32.06 7.05,-6.79 15.17,-14.43 24.78,-22.71 3.85,-7.01 8.55,-14.02 14.74,-20.81 12.6,-14.07 18.55,-15.31 26.92,-26.96 20.34,-28.31 77.13,-65.39 109.17,-65.39 25.93,0 50.03,15.36 60.03,38.42 15.57,35.94 26.54,128.96 72.42,106.16 0.65,-0.32 111.87,-134.32 117.47,-141.82 28.2,-37.58 55.97,-81.11 83.53,-130.15 l 25.21,-45.86 c 3.07,-13.91 -27.65,-3.18 -33.33,-3.18 l -111.3,-1.28 -33.54,-16.34 c -11.46,-10.95 1.86,-64.16 4.49,-70.7 10.27,-25.62 28.51,-22.67 58.75,-19.53 10.25,1.06 19.22,2.33 27.34,4.03 7.27,0.01 9.7,-6.42 46.15,-2.55 27.47,2.91 7.62,5.18 34.18,-0.21 5.34,-1.06 10.89,-2.12 17.3,-3.4 13.7,0.65 31.15,30.33 67.08,-54.99 16.45,-39.06 33.97,-58.59 52.77,-58.59 39.68,0 33.66,43.97 22.86,74.3 -10.78,30.29 -13.95,36.32 0.43,47.14 13.8,10.39 4.18,76.28 3.42,80.67 -4.43,25.43 -6.89,19.99 -53.42,29.51 -9.23,45.99 -17.09,60.58 -31.83,114.65 -8.54,31.63 -18.37,69.21 -29.26,112.53 l -20.51,127.8 c 0,9.84 2.39,19.96 12.6,19.96 7.54,0 72.8,-54.95 92.51,-71.55 l 24.35,57.33 c -15.05,17.33 -34.9,27.9 -44.44,36.3 l -58.53,60.08 c -21.01,24.25 -46.31,55.2 -78.41,55.2 -40.44,0 -54.47,-26.43 -54.47,-65.81 0,-29.77 1.65,-83.77 10.68,-105.73 6.68,-16.25 1.71,-4.48 5.55,-25.48 l 12.39,-73.46 c 7.53,-23.63 22.02,-30.88 9.4,-37.15 l -6.19,3.61 c -6.2,9.98 -14.32,20.38 -24.35,31.42 l -100.84,96.18 c -23.18,31.16 -31.53,57.91 -81.15,79.4 -37.1,16.07 -68.26,-3.45 -87.59,-37.79 -4.91,-8.92 -10.68,-19.96 -17.52,-33.33 -5.34,-5.31 -11.53,-12.32 -18.37,-21.23 -27.06,-35.29 -22.46,-41.6 -53.2,-22.08 -20.38,12.94 -45.42,40.4 -65.37,50.31 -18.4,9.15 -19.62,22.6 -46.78,52.87 l -85.67,87.04 c -15.65,13.97 -65.2,21.25 -68.36,-4.88 -1.5,-11.46 -3,-22.93 -4.28,-34.61 l 48.71,-156.89 c 2.62,-18.29 28.77,-55.84 0,-55.84 -21.42,0 -64.6,61.47 -83.74,72.82 -45.8,41.19 -44.7,66.63 -102.73,102.13 -19.44,11.88 -37.18,17.83 -53.62,17.83 -9.01,2.63 -13.63,11.89 -53.2,11.89 -103.72,0 -87.1,-101.49 -118.57,-101.49 -14.8,0 -38.36,54.36 -88.41,54.36 -72.28,0 -112.75,-111.47 -159.37,-111.47 -54.49,0 -167.18,191.72 -202.53,191.72 -22.22,0 -35.25,0.86 -35.25,-23.99 0,-28.35 28.3,-97.73 32.69,-123.78 l 14.52,-94.69 c 0.9,-12.17 -13.38,-23.3 -34.6,-2.34 -4.92,5.31 -10.47,10.62 -16.67,16.14 -5.98,5.31 -15.81,12.95 -29.05,22.93 L 5934.86,3515 c -19.9,22.3 -74.58,85.13 -88.44,85.13 -15.09,0 -38.03,-1.88 -38.03,-17.41 0,-44.34 69.47,-186.83 34.4,-186.83 -15.14,0 -30.84,21.68 -41.23,34.61 -35.24,36.18 -82.9,107.25 -126.44,126.11 -37.1,16.07 -68.26,-3.45 -87.59,-37.79 -4.92,-8.92 -10.69,-19.96 -17.52,-33.33 -5.34,-5.31 -11.54,-12.32 -18.37,-21.23 -27.06,-35.29 -22.46,-41.6 -53.2,-22.08 -20.38,12.94 -45.43,40.4 -65.37,50.31 -18.4,9.15 -19.62,22.6 -46.79,52.87 l -85.67,87.04 c -15.64,13.97 -65.19,21.25 -68.36,-4.88 -1.49,-11.46 -2.99,-22.93 -4.27,-34.61 l 48.71,-156.89 c 2.62,-18.29 28.77,-55.84 0,-55.84 -21.43,0 -64.6,61.47 -83.75,72.82 -47.77,42.97 -109.48,138.21 -176,138.21 -85.91,0 -82.32,-15.11 -111.09,-85.77 l -31.83,-49.68 c -8.63,-11.02 -16.12,-9.73 -36.11,6.16 -49.2,38.74 -85.86,122.93 -163.82,122.93 -56.99,0 -85.73,-37.03 -88.02,-92.78 -0.4,-9.68 -1.66,-15 -8.12,-23.57 l -36.1,31.21 c -36.22,27.94 -36.15,31.22 -65.38,59.02 -32.83,31.25 -45.04,40.66 -87.8,63.48 l -36.32,14.87 c -40.89,0 -58.96,-19.58 -58.96,-60.09 0,-36.9 28.11,-59.14 29.48,-61.78 0.32,-2.09 0.58,-3.98 0.78,-5.73 l -95.6,88.95 c -21.01,24.25 -46.31,55.2 -78.41,55.2 -40.44,0 -54.47,-26.43 -54.47,-65.81 0,-29.77 1.65,-83.77 10.68,-105.73 6.68,-16.25 1.71,-4.48 5.55,-25.48 l 12.39,-73.46 c 7.53,-23.63 22.02,-30.88 9.4,-37.15 l -6.19,3.61 c -6.2,9.98 -14.32,20.38 -24.35,31.42 -63.54,60.59 -126.93,141.18 -196.52,185.98 -10.14,6.53 -92.68,60.97 -110.23,63.7 -17.52,0 -30.77,-2.55 -39.53,-7.86 -32.52,-19.32 4.62,-69.97 13.25,-94.05 16.84,-47.06 42.77,-141.07 17.73,-183.44 -6.84,-11.46 -17.31,-18.25 -30.98,-19.74 -9.18,4.88 -19.22,11.89 -30.12,21.02 -24.86,21.03 -43.48,48.94 -65.58,70.91 -9.62,9.55 -17.52,15.92 -23.72,19.32 -3.85,6.15 -9.83,13.37 -18.16,21.23 -34.21,32.25 -65.29,74.52 -102.09,97.03 -19.44,11.88 -37.17,17.83 -53.62,17.83 -9,2.63 -13.62,11.89 -53.19,11.89 -103.72,0 -87.1,-101.49 -118.57,-101.49 -3.49,0 -55.56,49.96 -61.28,54.99 l -58.54,60.08 c -21,24.25 -46.31,55.2 -78.4,55.2 -40.45,0 -54.48,-26.43 -54.48,-65.81 0,-29.77 1.66,-83.77 10.68,-105.73 6.68,-16.25 1.72,-4.48 5.56,-25.48 l 12.39,-73.46 c 7.53,-23.63 22.02,-30.88 9.4,-37.15 l -6.2,3.61 c -6.19,9.98 -14.31,20.38 -24.35,31.42 -28.19,28.18 -144.96,159.54 -181.99,175.58 -37.09,16.07 -68.25,-3.45 -87.58,-37.79 -4.92,-8.92 -10.69,-19.96 -17.52,-33.33 -5.34,-5.31 -11.54,-12.32 -18.37,-21.23 -27.06,-35.29 -22.46,-41.6 -53.2,-22.08 -20.39,12.94 -45.43,40.4 -65.37,50.31 -18.41,9.15 -19.62,22.6 -46.79,52.87 l -85.67,87.04 c -15.64,13.97 -65.19,21.25 -68.36,-4.88 -1.5,-11.46 -2.99,-22.93 -4.28,-34.61 l 48.72,-156.89 c 2.62,-18.29 28.76,-55.84 0,-55.84 -21.43,0 -64.6,61.47 -83.75,72.82 -45.8,41.19 -44.7,66.63 -102.73,102.13 -19.44,11.88 -37.17,17.83 -53.62,17.83 -9.01,2.63 -13.62,11.89 -53.2,11.89 -103.71,0 -87.09,-101.49 -118.56,-101.49 -8.71,0 -18.52,10.91 -25,18.69 z"
   id="path65"
   style="fill:url(#id8)" />
    <path
   class="fil9"
   d="m 5031.89,2954.29 c 40.03,0 29.85,28.67 23.93,53.5 -6.11,25.63 -17.66,64.27 -33.54,81.1 -10.62,11.26 -48.79,37.65 -61.1,35.89 l -39.31,-3.19 c -13.15,-3.29 -17.52,-33.82 -17.52,-50.32 0,-12.52 7.48,-28.23 22.86,-46.92 15.17,-18.89 28.63,-29.08 40.38,-30.36 7.05,-8.7 15.38,-18.47 24.99,-29.72 7.3,-6.77 27.12,-9.98 39.31,-9.98 z"
   id="path67" />
    <g
   id="g91">
     <path
   class="fil10"
   d="m 1869.49,2620.15 v -987.56 c 0,-36.84 31.89,-191.41 234.9,-197.68 203,-6.27 988.93,0.17 988.93,0.17 0,0 443.71,56.43 475.61,410.7 31.9,354.27 -333.51,492.22 -333.51,492.22 l 113.83,101.88 c 0,0 45.68,53.3 78.31,-3.13 32.62,-56.43 561.88,-837.86 561.88,-837.86 0,0 234.91,-404.43 513.32,0 129.24,187.74 246.59,389.26 390.43,564.32 0,0 54.38,72.11 58,-10.18 3.63,-82.3 -3.64,-530.62 -4,-553.36 -3.62,-92.09 140.31,-299.4 318.67,-126.96 178.35,172.43 777.22,727.34 777.22,727.34 0,0 50.02,45.46 49.3,-14.11 -0.72,-59.57 -2.9,-643.48 -2.9,-643.48 3.62,-56.83 115.28,-144.22 193.58,-128.54 78.31,15.68 134.86,67.41 140.66,126.97 5.8,59.57 2.89,779.08 2.89,779.08 0,0 -8.7,125.41 117.45,126.98 126.16,1.57 1133.93,1.57 1133.93,1.57 0,0 88.45,-17.24 102.95,-87 14.5,-69.76 -64.53,-119.92 -87,-119.92 -22.48,0 -829.43,-22.73 -864.23,-22.73 -34.8,0 -168.93,-6.27 -256.66,-92.48 -87.72,-86.22 -73.96,-156.76 -73.96,-203.79 l -2.9,-170.86 c 0,0 56.54,-302.54 345.1,-307.24 288.55,-4.71 1141.17,0 1141.17,0 0,0 155.16,18.81 145.01,169.3 -10.15,150.48 -123.26,152.05 -123.26,152.05 l -1039.68,-7.83 c 0,0 -94.25,-6.27 -127.6,97.19 -33.35,103.45 120.35,131.67 120.35,131.67 h 826.53 c 0,0 374.1,17.24 345.1,399.73 -29,382.48 -295.82,391.89 -295.82,391.89 L 6171.34,2797.31 5444.87,2117 c 0,0 -139.21,-126.97 -142.11,37.62 -2.9,164.59 -8.7,631.74 -8.7,631.74 l -449.52,-3.13 -266.81,-391.89 -191.41,-291.57 c -38.76,-59.04 -166.76,-186.54 -274.06,-28.22 -107.3,158.33 -391.52,623.89 -391.52,623.89 0,0 -31.91,83.09 -181.27,83.09 -149.35,0 -320.45,4.7 -320.45,4.7 0,0 -36.26,1.57 -129.06,-101.89 -92.81,-103.46 -176.92,-184.97 -176.92,-184.97 0,0 -50.74,-67.41 -162.4,-68.97 -111.65,-1.57 -262.46,3.13 -284.93,-116.79 -22.48,-119.92 21.02,-215.54 125.42,-213.97 102.96,1.55 410.36,-6.27 410.36,-6.27 0,0 226.2,-81.5 165.3,-194.37 -60.91,-112.86 -232.01,-128.54 -232.01,-128.54 l -569.87,3.14 c -19.26,0.1 -101.5,-17.25 -104.4,125.4 -2.9,142.65 -17.41,608.61 -17.41,638 0,29.39 -0.71,215.54 -177.62,239.83 -173.28,7.84 -195.99,-153.68 -195.99,-153.68 z"
   id="path69"
   style="fill:url(#id6)" />
     <path
   class="fil11"
   d="m 1869.49,2620.15 v -283.73 l 374.24,167.23 c -0.39,16.01 -0.63,26.64 -0.63,30.35 0,29.38 -0.72,215.54 -177.62,239.83 -173.27,7.85 -195.99,-153.68 -195.99,-153.68 z"
   id="path71" />
     <path
   class="fil12"
   d="m 6467.12,2422.34 c 17.31,14.19 41.93,24.18 76.94,24.61 126.16,1.57 1133.93,1.57 1133.93,1.57 0,0 88.45,-17.24 102.95,-87 14.5,-69.76 -64.53,-119.92 -87,-119.92 -22.48,0 -829.43,-22.73 -864.23,-22.73 -34.8,0 -168.93,-6.27 -256.66,-92.48 -87.72,-86.22 -73.96,-156.76 -73.96,-203.79 l -2.9,-170.86 c 0,0 56.54,-302.54 345.1,-307.24 288.55,-4.71 1141.17,0 1141.17,0 0,0 155.16,18.81 145.01,169.3 -10.15,150.48 -123.26,152.05 -123.26,152.05 l -1039.68,-7.83 c 0,0 -94.25,-6.27 -127.6,97.19 -33.35,103.45 120.35,131.67 120.35,131.67 h 826.53 c 0,0 374.1,17.24 345.1,399.73 -29,382.48 -295.82,391.89 -295.82,391.89 l -1187.45,13.44 -175.28,-269.97 z"
   id="path73"
   style="fill:url(#linearGradient1024)" />
     <path
   class="fil13"
   d="m 6467.13,2422.34 c 17.3,14.19 41.91,24.18 76.94,24.61 126.15,1.57 1133.91,1.57 1133.91,1.57 0,0 7.43,-1.46 18.3,-5.2 v 269.14 H 6594.05 l -123.69,-190.49 z"
   id="path75" />
     <polygon
   class="fil14"
   points="6171.34,2797.31 5567.93,2232.25 6203.55,2537.64 6645.88,2791.94 "
   id="polygon77" />
     <path
   class="fil15"
   d="m 6772.56,2790.51 -334.09,6.96 C 6246.11,2690.94 5836.6,2432.77 5667.92,2325.88 L 5444.87,2117 l 169.98,-8.88 z"
   id="path79" />
     <path
   class="fil16"
   d="m 4949.27,1740.78 c -1.02,-75.71 -1.95,-133.33 -2.08,-141.11 -3.62,-92.09 140.31,-299.4 318.67,-126.96 178.35,172.43 777.22,727.34 777.22,727.34 0,0 50.02,45.46 49.3,-14.11 -0.72,-59.57 -2.9,-643.48 -2.9,-643.48 3.62,-56.83 115.28,-144.22 193.58,-128.54 78.31,15.68 134.86,67.41 140.66,126.97 5.8,59.57 2.89,779.08 2.89,779.08 0,0 -6.68,96.51 76.84,121.26 31.79,42.69 77.08,79.08 140.96,102.66 309.72,114.28 658.46,50.95 968.94,-95.38 l 64.64,0.01 c 0,0 88.45,-17.24 102.95,-87 0.15,-0.73 0.28,-1.45 0.41,-2.18 107.14,-63.41 207.28,-135.55 296.66,-211.82 l 0.15,0.23 45.19,117.07 c 6.69,35.8 9.01,76.18 5.56,121.79 -29,382.48 -295.82,391.89 -295.82,391.89 l -1167.21,13.21 c -376.47,-101.63 -819.2,-375.98 -1168.25,-625.3 L 5444.87,2117 c 0,0 -39.15,-35.7 -76.36,-44.7 -190.68,-141.74 -341.44,-265.86 -419.24,-331.52 z"
   id="path81"
   style="fill:url(#id2)" />
     <path
   class="fil15"
   d="m 4642.55,1809.8 c 13.84,21.17 27.7,42.34 41.64,63.44 -13.29,205.54 -18.36,626.32 133.05,869.89 l -239.51,-351.79 -20.9,-31.83 z m 202.34,973.43 h -0.35 l -3.36,-4.93 c 1.23,1.65 2.46,3.3 3.71,4.93 z"
   id="path83" />
     <path
   class="fil17"
   d="m 4613.98,1765.85 c 11.31,17.26 22.65,34.61 34.04,51.98 -0.01,0.06 -45.87,383.05 -3.44,671.7 l -66.85,-98.19 -191.41,-291.57 c -18.73,-28.53 -58.3,-73.04 -106.31,-93.57 73.56,-44.44 232.75,-144.91 333.97,-240.35 z"
   id="path85" />
     <path
   class="fil18"
   d="M 1869.49,2353.39 V 1632.6 c 0,-36.84 31.9,-191.42 234.89,-197.68 203.03,-6.28 988.95,0.17 988.95,0.17 0,0 443.71,56.42 475.6,410.68 31.91,354.28 -333.51,492.22 -333.51,492.22 l 76.16,68.17 37.69,33.73 0.01,0.01 0.02,0.03 v 0.01 l 0.05,0.05 0.04,0.05 0.03,0.03 0.08,0.09 0.06,0.07 0.04,0.03 0.12,0.14 0.07,0.07 0.07,0.08 0.15,0.17 0.07,0.08 0.09,0.1 0.19,0.2 0.06,0.07 0.14,0.15 0.22,0.23 0.05,0.05 0.19,0.19 0.25,0.26 0.02,0.02 0.25,0.26 0.27,0.27 0.02,0.01 0.29,0.29 0.26,0.27 0.05,0.05 0.33,0.32 0.26,0.24 0.08,0.1 0.36,0.33 0.23,0.22 0.15,0.14 0.38,0.36 0.41,0.37 0.4,0.38 0.18,0.15 0.25,0.24 0.45,0.39 0.12,0.12 0.34,0.29 0.46,0.4 0.08,0.07 0.41,0.34 0.48,0.41 0.03,0.03 0.48,0.39 0.49,0.4 0.03,0.03 0.52,0.43 0.46,0.34 0.09,0.09 0.55,0.42 0.4,0.3 0.17,0.13 0.57,0.44 0.35,0.26 0.24,0.17 0.6,0.43 0.29,0.21 0.31,0.23 0.63,0.43 0.22,0.15 0.41,0.28 0.63,0.42 0.16,0.11 0.49,0.31 0.66,0.42 0.09,0.06 0.58,0.36 0.67,0.41 h 0.02 l 0.67,0.41 0.62,0.36 0.07,0.03 0.71,0.4 0.55,0.3 0.16,0.08 0.71,0.38 0.5,0.25 0.23,0.12 0.74,0.36 0.42,0.2 0.33,0.15 0.75,0.34 0.33,0.15 0.42,0.19 0.77,0.31 0.77,0.32 0.78,0.3 0.17,0.05 0.61,0.22 0.79,0.28 c 14.99,5.02 33.15,2.7 48.52,-23.79 32.62,-56.43 561.88,-837.87 561.88,-837.87 0,0 165.87,-285.48 384.04,-136.75 l 3.5,2.38 c 40.4,28.34 82.57,71.6 125.78,134.37 38.14,55.4 75.23,112 112.28,168.76 -97.48,88.22 -198.16,173.18 -306.73,253.84 -56.1,-36.53 -129.99,-47.39 -196.04,50.08 -23.49,34.65 -55.44,84.01 -91.04,139.99 -48.19,28.16 -98.13,55.56 -150.09,82.13 l -762.22,408.18 c -6.04,-6.34 -12.36,-13.15 -18.97,-20.52 -35.06,-39.09 -68.86,-75.03 -97.38,-104.65 h -0.01 l -1,-1.04 -1.19,-1.23 -1.12,-1.18 -1.04,-1.06 -2.16,-2.23 -1.37,-1.42 -0.75,-0.78 -2.11,-2.16 -1.59,-1.66 -0.48,-0.49 -1.71,-1.77 -0.35,-0.35 -1.81,-1.86 -0.22,-0.22 -1.92,-1.98 -0.08,-0.08 -1.98,-2.03 -0.04,-0.05 -1.92,-1.95 -0.16,-0.18 -1.77,-1.8 -0.28,-0.28 -1.62,-1.67 -0.4,-0.39 -1.49,-1.52 -0.5,-0.52 -1.34,-1.37 -0.61,-0.62 -1.22,-1.23 -0.71,-0.73 -1.09,-1.1 -0.81,-0.82 -0.96,-0.98 -0.9,-0.91 -0.84,-0.85 -0.99,-1.01 -2.4,-2.41 -1.17,-1.2 -0.47,-0.47 -1.25,-1.26 -0.37,-0.37 -1.34,-1.35 -0.26,-0.26 -1.39,-1.41 -0.16,-0.16 -1.48,-1.47 -0.05,-0.07 -1.5,-1.5 -0.03,-0.03 -1.44,-1.43 -0.11,-0.13 -1.31,-1.31 -0.21,-0.21 c -16.37,-16.39 -26.04,-25.75 -26.04,-25.75 0,0 -50.76,-67.42 -162.41,-68.99 -111.65,-1.57 -262.46,3.13 -284.94,-116.78 -22.48,-119.93 21.02,-215.53 125.44,-213.95 102.94,1.54 410.35,-6.28 410.35,-6.28 0,0 226.2,-81.51 165.29,-194.37 -60.91,-112.86 -231.99,-128.56 -231.99,-128.56 l -569.88,3.14 c -19.25,0.12 -101.51,-17.24 -104.41,125.42 -2.74,134.77 -15.83,558.02 -17.27,629.19 z"
   id="path87"
   style="fill:url(#id5)" />
     <path
   class="fil2"
   d="m 3161.37,2751.11 c -14.76,-11.95 -32.63,-28.33 -53.94,-50.81 260.04,-144.58 520.1,-287.11 780.5,-403.68 0,0 -242.78,218.36 -418.34,298.99 -175.56,80.63 -239.06,117.39 -308.22,155.5 z"
   id="path89" />
    </g>
   </g>
 </g>
</svg>
